<svg xmlns="http://www.w3.org/2000/svg" xmlns:xlink="http://www.w3.org/1999/xlink" version="1.1" x="0px" y="0px" viewBox="0 0 30 30" xml:space="preserve"><g transform="translate(-150 -320)"><g xmlns="http://www.w3.org/2000/svg" xmlns:xlink="http://www.w3.org/1999/xlink"><path d="M165,321c-3.047,0-5.86,0.99-8.16,2.648c0.265,0.207,0.498,0.453,0.681,0.736c2.118-1.496,4.694-2.385,7.48-2.385    c7.168,0,13,5.832,13,13s-5.832,13-13,13s-13-5.832-13-13c0-2.299,0.605-4.457,1.656-6.332c-0.302-0.152-0.578-0.348-0.811-0.588    c-1.168,2.043-1.846,4.402-1.846,6.92c0,7.721,6.28,14,14,14c7.72,0,14-6.279,14-14C179,327.281,172.72,321,165,321z"/><path d="M155,335c0,5.514,4.486,10,10,10s10-4.486,10-10c0-1.32-0.264-2.58-0.73-3.736c-0.242,0.242-0.534,0.432-0.857,0.559    c0.374,0.99,0.588,2.057,0.588,3.178c0,4.971-4.029,9-9,9s-9-4.029-9-9s4.029-9,9-9c2.104,0,4.033,0.727,5.565,1.935    c0.218-0.267,0.485-0.486,0.794-0.646C169.63,325.859,167.414,325,165,325C159.486,325,155,329.486,155,335z"/><circle cx="165" cy="335" r="4"/><path d="M173.795,330.244c0.127-0.219,0.205-0.471,0.205-0.744c0-0.828-0.672-1.5-1.5-1.5c-0.115,0-0.227,0.016-0.334,0.041    c-0.346,0.078-0.643,0.277-0.852,0.551c-0.194,0.252-0.314,0.565-0.314,0.908c0,0.828,0.672,1.5,1.5,1.5    c0.18,0,0.349-0.037,0.508-0.094C173.343,330.785,173.619,330.549,173.795,330.244z"/><path d="M157,326c0-0.371-0.107-0.713-0.283-1.01c-0.173-0.293-0.415-0.535-0.707-0.707c-0.297-0.176-0.64-0.283-1.01-0.283    c-1.105,0-2,0.897-2,2c0,0.443,0.148,0.85,0.393,1.18c0.202,0.275,0.469,0.496,0.781,0.637c0.253,0.115,0.531,0.184,0.826,0.184    C156.104,328,157,327.103,157,326z"/></g></g><text x="0" y="45" fill="#000000" font-size="5px" font-weight="bold" font-family="'Helvetica Neue', Helvetica, Arial-Unicode, Arial, Sans-serif">Created by Hea Poh Lin</text><text x="0" y="50" fill="#000000" font-size="5px" font-weight="bold" font-family="'Helvetica Neue', Helvetica, Arial-Unicode, Arial, Sans-serif">from the Noun Project</text></svg>
